<svg width="78" height="64" viewBox="0 0 78 64" fill="none" xmlns="http://www.w3.org/2000/svg">
<g clip-path="url(#clip0)">
<path d="M24.1138 12.96H17.6864V9.73121H22.7649V6.53121H17.6864V3.29921H24.1138V0.0992126H14.4824V16.16H24.1138V12.96Z" fill="white"/>
<path d="M10.253 11.344C10.2512 10.1613 9.81061 9.02118 9.01621 8.14403C9.64849 7.45569 10.0659 6.59805 10.2174 5.67626C10.3688 4.75446 10.2476 3.80857 9.86869 2.95455C9.48977 2.10052 8.86957 1.37547 8.08414 0.868289C7.29871 0.361107 6.38216 0.0938323 5.44688 0.0992318H-0.0929565V16.16H5.44688C6.72248 16.1541 7.94391 15.6443 8.84441 14.742C9.74491 13.8396 10.2513 12.618 10.253 11.344ZM3.1015 3.29923H5.44688C5.87601 3.29923 6.28757 3.46949 6.59101 3.77255C6.89446 4.0756 7.06493 4.48664 7.06493 4.91523C7.06493 5.34382 6.89446 5.75486 6.59101 6.05792C6.28757 6.36097 5.87601 6.53123 5.44688 6.53123H3.11752L3.1015 3.29923ZM3.1015 9.73123H5.44688C5.87559 9.73123 6.28674 9.90132 6.58988 10.2041C6.89302 10.5068 7.06333 10.9175 7.06333 11.3456C7.06333 11.7738 6.89302 12.1844 6.58988 12.4872C6.28674 12.7899 5.87559 12.96 5.44688 12.96H3.11752L3.1015 9.73123Z" fill="white"/>
<path d="M30.6854 8.33601L34.2098 10.3584C34.475 10.5122 34.6821 10.7489 34.7992 11.032C34.9163 11.315 34.9369 11.6287 34.8579 11.9246C34.7788 12.2205 34.6044 12.4822 34.3616 12.6693C34.1189 12.8565 33.8212 12.9586 33.5146 12.96H28.5643V16.16H33.5081C34.5201 16.1586 35.5033 15.824 36.3056 15.208C37.1079 14.5921 37.6845 13.7291 37.9462 12.7528C38.2078 11.7765 38.1399 10.7413 37.7529 9.8075C37.3659 8.87366 36.6814 8.09329 35.8055 7.58721L32.281 5.56161C32.05 5.42803 31.8694 5.22215 31.7674 4.9758C31.6653 4.72945 31.6473 4.45636 31.7163 4.19879C31.7852 3.94122 31.9372 3.71352 32.1487 3.55091C32.3603 3.3883 32.6196 3.29983 32.8866 3.29921H37.8336V0.0992126H32.8898C31.9168 0.0993519 30.971 0.420259 30.1993 1.01213C29.4276 1.60399 28.8731 2.43372 28.6218 3.37252C28.3706 4.31133 28.4366 5.30672 28.8098 6.2042C29.1829 7.10167 29.8422 7.85105 30.6854 8.33601Z" fill="white"/>
<path d="M45.219 16.16H48.4231V3.29921H52.332V0.0992126H41.3132V3.29921H45.219V16.16Z" fill="white"/>
<path d="M61.8353 0.0992126H58.6312V9.82082H61.8353V0.0992126Z" fill="white"/>
<path d="M68.1537 5.50721C68.2258 5.89081 68.3982 6.24853 68.6535 6.54401L71.0149 9.27042L71.5212 9.82082H73.8537V0.0992126H70.6497V4.41602C70.5662 4.01625 70.3808 3.64479 70.1114 3.33761L67.7885 0.640014L67.2854 0.0992126H64.9496V9.82082H68.1537V5.50721Z" fill="white"/>
<path d="M73.9435 12.96H58.6312V16.16H73.9435V12.96Z" fill="white"/>
<path d="M17.1066 30.8896H17.302L21.1469 37.4784H24.8572L20.881 30.6752C22.0052 30.3548 22.9739 29.6361 23.6057 28.6538C24.2376 27.6715 24.4893 26.4928 24.3137 25.3384C24.1381 24.1841 23.5472 23.1333 22.6517 22.3827C21.7562 21.6321 20.6175 21.2333 19.4488 21.2608H13.9025V37.3216H17.1066V30.8896ZM17.1066 24.4608H19.436C19.8647 24.4608 20.2758 24.6309 20.579 24.9336C20.8821 25.2364 21.0524 25.647 21.0524 26.0752C21.0524 26.5034 20.8821 26.914 20.579 27.2168C20.2758 27.5195 19.8647 27.6896 19.436 27.6896H17.1066V24.4608Z" fill="white"/>
<path d="M55.8085 37.3216H65.4431V34.1216H59.0125V30.8896H64.0942V27.6896H59.0125V24.4608H65.4431V21.2608H55.8085V37.3216Z" fill="white"/>
<path d="M72.0948 34.1216V21.2608H68.8907V37.3216H77.3815V34.1216H72.0948Z" fill="white"/>
<path d="M10.9258 21.2608H-0.0929565V24.4608H3.81601V37.3216H7.02007V24.4608H10.9258V21.2608Z" fill="white"/>
<path d="M30.3777 35.2H35.5651L36.3373 37.4912H39.7176L34.2514 21.2736H31.6241L26.2413 37.4784H29.6184L30.3777 35.2ZM32.941 27.4496L34.4789 32H31.4383L32.941 27.4496Z" fill="white"/>
<path d="M47.7791 37.376L53.1075 21.184H49.7368L46.4494 31.168L43.1076 21.184H39.7305L45.1486 37.376H47.7791Z" fill="white"/>
<path d="M35.6549 59.7888C35.5299 59.7152 35.4114 59.6288 35.2416 59.5168C35.3473 59.5168 35.389 59.488 35.4178 59.5008C35.594 59.5776 35.767 59.664 35.9465 59.7408C36.0115 59.7573 36.0781 59.7669 36.1451 59.7696C36.1221 59.6953 36.0875 59.6251 36.0426 59.5616C35.9615 59.483 35.876 59.4093 35.7863 59.3408C35.5452 59.0911 35.2789 58.867 34.9917 58.672C34.6349 58.5031 34.2625 58.3692 33.8798 58.272C33.6487 58.1991 33.4133 58.1403 33.175 58.096C32.7517 58.004 32.3239 57.9346 31.8933 57.888C31.3582 57.8432 30.82 57.8464 30.2913 57.8432C29.6152 57.8432 28.9392 57.8144 28.2695 57.8432C27.655 57.8745 27.043 57.9429 26.4368 58.048C25.9882 58.1216 25.5557 58.2784 25.1135 58.3904C24.9533 58.432 24.7931 58.4544 24.6233 58.4832C24.54 58.464 24.4695 58.512 24.3958 58.5184C24.2356 58.5344 24.0754 58.5184 23.9088 58.5344C23.8063 58.5344 23.7069 58.5536 23.5724 58.5664L23.7005 58.3008L23.5307 58.3296C23.5788 58.2656 23.5948 58.224 23.6268 58.2016C23.7454 58.1152 23.8703 58.0352 23.9921 57.9552L24.2772 57.7664C24.5144 57.6387 24.7414 57.4932 24.9565 57.3312C25.2353 57.088 25.4788 56.8 25.7415 56.5312C26.0042 56.2624 26.1965 56.0544 26.4368 55.8272C26.6771 55.6 26.9366 55.4176 27.1609 55.1872C27.4589 54.8864 27.7216 54.5472 28.01 54.2432C28.3304 53.8848 28.6957 53.5488 29.0225 53.184C29.3493 52.8192 29.6056 52.4896 29.878 52.128C30.5096 51.3346 31.0723 50.4889 31.5601 49.6C31.6554 49.4735 31.737 49.3373 31.8036 49.1936C31.9702 48.7176 32.0515 48.2161 32.0439 47.712C32.0482 47.5708 32.0665 47.4304 32.0984 47.2928C32.123 47.1994 32.123 47.1013 32.0984 47.008C32.0415 46.8843 31.959 46.7742 31.8562 46.6848C31.7535 46.5954 31.6329 46.5289 31.5024 46.4896C31.4253 46.4608 31.3504 46.4266 31.2781 46.3872L31.5152 46.2368C31.3705 46.0776 31.2057 45.9377 31.025 45.8208C30.5736 45.5588 30.0708 45.3973 29.5512 45.3472C29.0787 45.312 28.6042 45.312 28.1317 45.3472C27.5215 45.3989 26.9194 45.5213 26.3375 45.712C25.5324 45.9923 24.7549 46.3457 24.0145 46.768C23.4378 47.088 22.8611 47.4336 22.3003 47.7952C21.8678 48.0736 21.4577 48.3872 21.054 48.7072C20.6022 49.0624 20.1696 49.4336 19.7371 49.808C19.6539 49.8873 19.5884 49.9833 19.5448 50.0896C19.4679 50.2624 19.4199 50.4448 19.3494 50.6208C19.302 50.7243 19.2463 50.8238 19.1828 50.9184L19.061 50.896C19.1764 51.216 19.2693 51.4944 19.3814 51.7728C19.484 52.0032 19.7018 52.0032 19.9101 51.9712C20.1184 51.9392 20.0991 51.7664 20.1568 51.6288C20.1974 51.5043 20.2717 51.3936 20.3715 51.3088C20.5827 51.1443 20.817 51.0117 21.0668 50.9152C21.3572 50.7726 21.6215 50.5822 21.8486 50.352C22.3937 49.8842 22.9877 49.4765 23.6204 49.136C24.3894 48.704 25.1103 48.176 25.9786 47.952C26.4336 47.8272 26.8725 47.632 27.3211 47.4976C28.159 47.2523 29.0311 47.1442 29.9036 47.1776C30.1855 47.1776 30.2721 47.3056 30.1663 47.5744C29.9856 48.1408 29.7268 48.6793 29.3974 49.1744C28.936 49.7856 28.5963 50.4864 28.0356 51.0272C28.02 51.0439 28.006 51.0621 27.994 51.0816C27.5742 51.5968 27.1737 52.128 26.7348 52.6272C26.2958 53.1264 25.8376 53.52 25.4275 54C24.8277 54.6507 24.1855 55.2611 23.5051 55.8272C23.159 56.1472 22.7874 56.4288 22.4381 56.736C22.0889 57.0432 21.7781 57.3536 21.4384 57.648C20.5766 58.3968 19.7051 59.1392 18.8367 59.888C18.7278 59.9776 18.6093 60.0576 18.5163 60.1536C18.4234 60.2496 18.3209 60.3744 18.212 60.4736C18.103 60.5728 17.962 60.6656 17.8371 60.7648C17.5597 61.0113 17.2688 61.242 16.9656 61.456C16.7322 61.575 16.541 61.7627 16.4177 61.9936C16.376 62.0896 16.3632 62.1952 16.3248 62.2912C16.2722 62.3781 16.2444 62.4777 16.2444 62.5792C16.2444 62.6807 16.2722 62.7803 16.3248 62.8672C16.422 63.0525 16.5044 63.2451 16.5715 63.4432C16.5715 63.4432 16.6163 63.4432 16.6323 63.4656C16.8315 63.5813 17.0231 63.7096 17.2059 63.8496C17.3693 63.9904 17.4718 63.9392 17.6224 63.8336C17.8075 63.7127 18.0013 63.6057 18.2023 63.5136C18.2793 63.4858 18.3543 63.4526 18.4266 63.4144C18.8624 63.0944 19.2885 62.7744 19.7275 62.48C19.8888 62.3752 20.058 62.2832 20.2337 62.2048C20.4099 62.1216 20.6054 62.0736 20.772 61.9776C21.387 61.5777 22.0434 61.2451 22.7297 60.9856C23.0084 60.8928 23.2776 60.784 23.5563 60.6912C24.1608 60.4779 24.7685 60.2763 25.3794 60.0864C25.4662 60.0593 25.5552 60.04 25.6454 60.0288C26.3343 59.9168 27.0199 59.8016 27.712 59.7088C28.2318 59.6226 28.7559 59.5649 29.282 59.536C29.9837 59.536 30.6918 59.5776 31.3935 59.5808C32.356 59.5808 33.3134 59.7209 34.2355 59.9968C34.5846 60.0865 34.9206 60.221 35.2352 60.3968C35.4197 60.5434 35.6417 60.6354 35.876 60.6624C36.1291 60.6624 36.1163 60.4384 36.2701 60.384C36.2355 60.2569 36.1791 60.1367 36.1035 60.0288C35.9635 59.9321 35.8131 59.8515 35.6549 59.7888ZM31.1019 58.3488C31.1628 58.3072 31.2141 58.2464 31.2781 58.2112C31.3388 58.1849 31.4022 58.1656 31.4672 58.1536L31.4287 58.3584C31.7908 58.288 32.1561 58.4192 32.5405 58.4192C32.4936 58.4978 32.4192 58.5563 32.3317 58.5835C32.2441 58.6107 32.1496 58.6046 32.0663 58.5664C31.8488 58.531 31.627 58.531 31.4095 58.5664C31.2589 58.5664 31.1083 58.5472 30.9577 58.5376V58.4512C31.0077 58.4198 31.0558 58.3856 31.1019 58.3488ZM29.7658 58.128H30.6405C30.4739 58.336 30.7591 58.3584 30.8296 58.5504C30.4195 58.4576 30.0253 58.6656 29.6633 58.3936L29.7658 58.128ZM28.9135 51.936L28.5162 52.4608L28.4618 52.4224C28.5643 52.2176 28.6476 52.0064 28.9135 51.936ZM28.0004 52.896C28.0004 52.896 28.0388 52.912 28.1253 52.944C27.3948 53.5488 26.9655 54.3904 26.2478 54.9664L26.1837 54.944C26.1837 54.8864 26.1837 54.8096 26.2093 54.7744C26.3279 54.64 26.4688 54.5248 26.5906 54.3936C26.7123 54.2624 26.7732 54.16 26.8693 54.0512C26.9655 53.9424 27.0648 53.856 27.1545 53.7504C27.2442 53.6448 27.3019 53.552 27.3724 53.4528C27.3724 53.4336 27.3724 53.3984 27.3916 53.3888L28.0004 52.896ZM23.6108 56.432C23.7197 56.2804 23.8385 56.136 23.9665 56C24.3606 55.6064 24.7803 55.232 25.168 54.8288C25.5557 54.4256 25.985 53.9424 26.3887 53.4944L27.5358 52.2144C27.6479 52.0896 27.7697 51.9744 27.8882 51.856L27.9555 51.8976C27.9366 51.9848 27.9053 52.0688 27.8626 52.1472C27.5422 52.5824 27.2378 53.0112 26.9174 53.4272C26.8469 53.5232 26.7412 53.5968 26.6707 53.6896C26.6231 53.7681 26.5824 53.8505 26.5489 53.936C26.5329 53.968 26.5169 54.0192 26.4913 54.0256C26.1516 54.1216 26.0107 54.448 25.7703 54.6656C25.3378 55.0432 24.9565 55.4784 24.5592 55.8944C24.3752 56.1524 24.16 56.3868 23.9184 56.592C23.7101 56.72 23.598 56.928 23.4122 57.0336C23.1622 57.1776 23.0469 57.504 22.7265 57.5392C22.8354 57.4144 22.9476 57.2928 23.0469 57.1648L23.6108 56.432ZM22.7009 57.5488L22.2299 58.0032L22.169 57.936C22.2981 57.752 22.4855 57.6168 22.7009 57.552V57.5488ZM21.3359 59.216L22.2523 58.5024C22.2994 58.4588 22.3394 58.408 22.3708 58.352C22.3901 58.3264 22.3869 58.2816 22.4093 58.2624C22.6848 58.0352 22.9636 57.8112 23.2423 57.5872C23.4506 57.4208 23.6653 57.2672 23.8671 57.0912C23.9194 57.0286 23.9577 56.9555 23.9793 56.8768C24.0081 56.816 24.0081 56.7104 24.0466 56.6944C24.1325 56.6799 24.2202 56.6799 24.3061 56.6944L24.3477 56.752C24.4031 56.6058 24.4684 56.4636 24.5432 56.3264C24.6206 56.2023 24.7206 56.0938 24.838 56.0064C25.0366 55.8656 25.2673 55.7728 25.4596 55.6256C25.6016 55.4986 25.7343 55.3618 25.8569 55.216C25.9338 55.1424 26.0203 55.0752 26.1036 55.008L26.1709 55.0656C26.0667 55.2166 25.9544 55.3619 25.8344 55.5008C25.671 55.6704 25.4724 55.8208 25.309 55.9808C25.1456 56.1408 24.9597 56.4128 24.7675 56.6208C24.6425 56.7488 24.4278 56.7936 24.4118 57.024C24.4118 57.0464 24.3606 57.0752 24.3253 57.0912C23.881 57.3403 23.4788 57.6578 23.1334 58.032C22.9251 58.2144 22.6944 58.3712 22.4766 58.5408L21.5698 59.2448C21.4929 59.3024 21.4064 59.3504 21.3263 59.4048L21.2879 59.36C21.3039 59.296 21.3071 59.2416 21.3359 59.2192V59.216ZM20.112 59.7856L20.0671 59.7312L20.5125 59.312L20.5733 59.3792L20.112 59.7856ZM31.15 58.9056C30.6982 58.8768 30.24 58.928 29.785 58.9376C29.6569 58.9376 29.5287 58.9376 29.4006 58.9376C29.1859 58.9376 28.9616 58.832 28.7758 59.0528C28.7213 59.1168 28.5771 59.1168 28.4746 59.1264C28.0997 59.1648 27.7216 59.1872 27.3435 59.2288C27.1591 59.258 26.9762 59.2964 26.7957 59.344C26.2702 59.472 25.7511 59.6128 25.2225 59.7216C24.902 59.7888 24.5816 59.8112 24.2612 59.856L24.3574 59.9744H23.8928V60.0352L24.0658 60.0128C24.0658 60.0384 24.0658 60.0576 24.0466 60.0608C23.8287 60.1472 23.6076 60.2336 23.3865 60.3104C23.3622 60.3208 23.3361 60.3261 23.3096 60.3261C23.2832 60.3261 23.257 60.3208 23.2327 60.3104C23.1078 60.2368 23.0405 60.2496 22.97 60.3936C22.8995 60.5376 22.7906 60.4608 22.6944 60.3936C22.6373 60.3607 22.5758 60.3359 22.5118 60.32L22.4798 60.3808L22.6079 60.592C22.2395 60.592 21.8293 60.416 21.6467 60.912C21.4737 60.6944 21.3103 60.816 21.1405 60.912C20.9707 61.008 20.7944 61.1104 20.6246 61.2096L20.5733 61.1456C20.6418 61.066 20.7146 60.9902 20.7912 60.9184C21.3231 60.4768 21.839 60.0096 22.3933 59.6064C22.7198 59.4122 23.0629 59.2473 23.4186 59.1136C23.5008 59.0809 23.5727 59.0268 23.6268 58.9568C23.739 58.7904 23.8415 58.7136 24.0498 58.8352C24.1779 58.8765 24.3158 58.8765 24.4439 58.8352C24.6137 58.8032 24.7643 58.7232 24.9405 58.6848C25.3955 58.576 25.8472 58.4704 26.3054 58.384C26.7636 58.2976 27.2218 58.2112 27.6832 58.1696C28.2855 58.1152 28.8943 58.1088 29.4999 58.0832C29.4999 58.0832 29.5223 58.0992 29.5832 58.1472L29.3333 58.3136L29.6056 58.3744C29.58 58.4192 29.5704 58.4512 29.5576 58.4544C29.2048 58.5762 28.8278 58.6113 28.4586 58.5568C28.3631 58.5554 28.269 58.5797 28.1862 58.6272C28.0581 58.6784 27.9299 58.7424 27.8049 58.8V58.8608C28.1253 58.832 28.4457 58.8 28.7662 58.7776C29.1699 58.7488 29.5704 58.7104 29.9741 58.7104C30.522 58.7104 31.0667 58.7104 31.6114 58.7616C32.076 58.7968 32.5341 58.8832 32.9923 58.9536C33.0147 58.9536 33.0308 59.0016 33.05 59.0336C32.4092 59.1616 31.7844 58.9536 31.15 58.9088V58.9056ZM33.0724 59.008C33.1354 58.9689 33.2081 58.9481 33.2823 58.9481C33.3565 58.9481 33.4292 58.9689 33.4922 59.008C33.6488 59.0714 33.8093 59.1249 33.9728 59.168C33.8219 59.2282 33.6573 59.2454 33.4972 59.2178C33.3371 59.1901 33.1878 59.1186 33.066 59.0112L33.0724 59.008Z" fill="white"/>
<path d="M48.5832 56.7232H47.622C47.6541 56.6528 47.6989 56.6048 47.747 56.6016C48.045 56.5856 48.3461 56.6016 48.6441 56.5664C48.878 56.5472 49.1279 56.5312 49.2593 56.2464H48.6473C48.2569 56.2192 47.8651 56.2192 47.4746 56.2464C47.0261 56.304 46.6159 56.1408 46.193 56.1216C46.193 56.1216 46.177 56.0992 46.1546 56.064C46.1983 56.0437 46.2447 56.0297 46.2923 56.0224C46.7858 55.9968 47.2824 55.9776 47.7758 55.9552C47.936 55.9552 47.9777 55.888 47.9072 55.7376L47.7181 55.9008C47.4842 55.6096 47.135 55.8336 46.8627 55.6928C46.8242 55.6736 46.7537 55.7216 46.696 55.7376C46.6355 55.7655 46.5703 55.7818 46.5038 55.7856C46.2571 55.7696 46.0072 55.7376 45.7573 55.7184L43.854 55.5744L43.2677 55.5232V55.456L44.3603 54.6752C44.6134 54.4928 44.8793 54.3232 45.1261 54.1312C45.5073 53.8304 45.8822 53.5136 46.2571 53.2032C46.5615 52.9504 46.8979 52.7168 47.1606 52.4384C47.6092 51.9872 48.0321 51.5136 48.4423 51.0368C48.6089 50.848 48.8908 50.7392 48.9165 50.432C48.9165 50.4096 48.9517 50.3808 48.9773 50.368C49.1824 50.2784 49.2048 50.112 49.192 49.9136C49.19 49.8224 49.2074 49.7319 49.2433 49.648C49.3074 49.4656 49.4515 49.2768 49.4291 49.104C49.4154 48.9889 49.4266 48.8722 49.462 48.7617C49.4974 48.6513 49.5561 48.5498 49.6342 48.464C49.5316 48.3424 49.4355 48.2272 49.3426 48.1088C49.2497 47.9904 49.1023 47.8784 49.0703 47.744C49.0595 47.6703 49.0341 47.5996 48.9955 47.5358C48.957 47.4721 48.9062 47.4167 48.846 47.3728C48.6954 47.2736 48.5256 47.1904 48.3782 47.0976C47.8512 46.747 47.2215 46.5836 46.5903 46.6336C46.2891 46.6624 45.9847 46.6752 45.6868 46.7232C45.3447 46.7785 45.0057 46.8512 44.6711 46.9408C44.1603 47.0567 43.6742 47.2626 43.2357 47.5488C43.037 47.6896 42.7711 47.7664 42.6846 48.0448C42.6598 48.1549 42.6589 48.269 42.6821 48.3794C42.7054 48.4898 42.7521 48.594 42.8191 48.6848C42.9333 48.7447 43.0407 48.8165 43.1395 48.8992C43.1936 48.9667 43.2683 49.0145 43.3523 49.0353C43.4363 49.0561 43.5248 49.0488 43.6041 49.0144C43.7669 48.9535 43.9398 48.9241 44.1136 48.928C44.3352 48.9345 44.5551 48.8873 44.7544 48.7904C45.1997 48.6252 45.6544 48.4863 46.1161 48.3744C46.434 48.3255 46.7564 48.3115 47.0773 48.3328C47.2919 48.3445 47.5058 48.3669 47.7181 48.4C47.5498 48.8569 47.2904 49.275 46.9556 49.6288C46.7313 49.8592 46.5198 50.1056 46.2859 50.3328C45.7893 50.8192 45.2959 51.2928 44.7768 51.7696C44.4756 52.0416 44.136 52.2624 43.8156 52.5056C43.2997 52.8928 42.7775 53.2768 42.2648 53.6672C41.6817 54.112 41.1114 54.5792 40.5154 55.0016C40.1966 55.2135 39.9681 55.5363 39.8746 55.9072C39.8265 56.1088 40.006 56.7456 40.195 56.8192C40.2309 56.8268 40.2645 56.8426 40.2932 56.8654C40.3219 56.8882 40.3449 56.9174 40.3605 56.9506C40.376 56.9837 40.3836 57.0201 40.3827 57.0567C40.3818 57.0933 40.3724 57.1292 40.3552 57.1616C40.4641 57.2032 40.5474 57.2416 40.6307 57.2672C40.7845 57.312 40.9512 57.4144 41.0857 57.3792C41.3056 57.3344 41.5323 57.3344 41.7522 57.3792C41.9539 57.4084 42.1572 57.4266 42.3609 57.4336C43.053 57.4336 43.7451 57.456 44.4372 57.4656C44.7146 57.4816 44.9928 57.4816 45.2702 57.4656C45.6611 57.4208 46.0488 57.328 46.4397 57.2768C46.9716 57.2032 47.5067 57.152 48.0418 57.0848C48.1143 57.0702 48.183 57.0408 48.2436 56.9984C48.3525 56.9056 48.4743 56.8064 48.5832 56.7232Z" fill="white"/>
<path d="M40.8199 51.328C40.9237 50.8642 40.906 50.3815 40.7686 49.9264C40.6158 49.5351 40.4168 49.1634 40.1758 48.8192C39.7952 48.1627 39.2085 47.6499 38.5065 47.36C38.4718 47.3451 38.4385 47.3269 38.4072 47.3056C38.2648 47.1909 38.1046 47.1001 37.933 47.0368C37.2613 46.8977 36.5645 46.9397 35.9144 47.1584C35.8635 47.1666 35.8116 47.1666 35.7606 47.1584C35.4947 47.1584 35.232 47.1584 34.9692 47.1776C34.9404 47.1776 34.9148 47.2384 34.8891 47.2704C34.8635 47.3024 34.8186 47.3824 34.7738 47.392C34.6998 47.4111 34.6214 47.4032 34.5527 47.3696C34.4757 47.328 34.3877 47.3109 34.3007 47.3206C34.2136 47.3303 34.1316 47.3664 34.0657 47.424C33.7869 47.6 33.505 47.7792 33.2326 47.9648C33.0692 48.0768 32.9122 48.2112 32.7616 48.3328C33.1013 48.3712 33.4024 48.2368 33.7228 48.2848C34.0712 48.2805 34.4124 48.1857 34.7129 48.0096C35.1542 47.8451 35.6229 47.7658 36.0939 47.776C36.1355 47.776 36.1804 47.8208 36.2477 47.856C36.1984 47.9027 36.1447 47.9445 36.0875 47.9808C35.3376 48.4037 34.6604 48.9439 34.0817 49.5808C33.7228 49.9328 33.38 50.2976 33.0244 50.6496C32.8161 50.8608 32.7648 51.1936 32.4701 51.3312C32.4412 51.3312 32.4412 51.4144 32.4284 51.456C32.4076 51.5281 32.3819 51.5986 32.3515 51.6672C32.1176 52.1184 31.794 52.5152 31.6915 53.04C31.6034 53.5445 31.6498 54.0632 31.826 54.544C31.8797 54.7165 31.9517 54.8828 32.0407 55.04C32.1561 55.2416 32.1913 55.5424 32.5598 55.472C32.6246 55.4727 32.6886 55.4863 32.7481 55.5121C32.8075 55.538 32.8612 55.5755 32.9058 55.6224C33.2586 55.9349 33.7159 56.1039 34.1874 56.096C34.3801 56.1284 34.5764 56.1337 34.7706 56.112C35.2463 56.0071 35.7142 55.8691 36.1708 55.6992C36.8404 55.44 37.494 55.1456 38.1413 54.8384C38.402 54.7045 38.6452 54.539 38.8654 54.3456C39.0512 54.192 39.1858 53.9456 39.3748 53.8272C39.8781 53.5081 40.2542 53.0238 40.4386 52.4576C40.6024 52.0945 40.7301 51.7161 40.8199 51.328ZM38.231 52.608C38.1195 52.7327 38.0267 52.8728 37.9554 53.024C37.8561 53.024 37.7408 53.024 37.7119 53.0592C37.494 53.3792 37.1128 53.4336 36.8116 53.5968C36.3099 53.8531 35.784 54.0589 35.2416 54.2112C34.9212 54.3008 34.5751 54.2112 34.2611 54.3008C33.9168 54.3578 33.5634 54.3157 33.2422 54.1792C33.2578 54.1076 33.2782 54.037 33.3031 53.968C33.4871 53.5543 33.7287 53.1686 34.0208 52.8224C34.3829 52.4192 34.7353 52.0096 35.091 51.6C35.3697 51.28 35.6453 50.96 35.9272 50.64C36.0009 50.5568 36.1035 50.4992 36.1868 50.4224C36.3715 50.2308 36.5685 50.0512 36.7763 49.8848C36.9854 49.7412 37.2128 49.626 37.4524 49.5424C37.528 49.5254 37.5965 49.4855 37.6486 49.4283C37.7008 49.371 37.734 49.2992 37.7439 49.2224C37.7616 49.0892 37.8264 48.9666 37.9266 48.8768C38.1605 48.6976 38.2117 48.5184 37.9778 48.2368C38.1023 48.2137 38.2306 48.2228 38.3506 48.2631C38.4706 48.3034 38.5783 48.3737 38.6635 48.4672C39.0581 48.9069 39.2761 49.4768 39.2755 50.0672C39.2755 50.112 39.2595 50.1696 39.2755 50.2016C39.4101 50.3904 39.3011 50.5792 39.2531 50.752C39.1077 51.4632 38.7516 52.1144 38.231 52.6208V52.608ZM39.3684 52.3392L39.048 52.7776C39.1185 52.4352 39.1217 52.432 39.3684 52.352V52.3392ZM40.0092 52.5344C39.8406 52.8241 39.6466 53.0983 39.4293 53.3536C39.29 53.4645 39.1329 53.551 38.9647 53.6096L38.8942 53.5744C38.9807 53.4496 39.0608 53.3216 39.1505 53.2C39.2403 53.0784 39.4197 52.9728 39.3171 52.7488C39.2915 52.6944 39.4133 52.5728 39.4677 52.4832L39.9772 51.6416L39.9355 51.6L39.7689 51.7216C39.7425 51.6746 39.723 51.6239 39.7113 51.5712C39.7146 51.5159 39.7243 51.4612 39.7401 51.408L40.0381 51.4752C40.1118 51.376 40.2079 51.2384 40.3136 51.1072C40.3392 51.0784 40.4033 51.04 40.4193 51.0496C40.4354 51.0592 40.4995 51.1328 40.493 51.1648C40.4386 51.4208 40.5251 51.696 40.2912 51.9296C40.1374 52.0928 40.1182 52.3584 40.0028 52.5472L40.0092 52.5344Z" fill="white"/>
<path d="M57.0677 47.1488C56.9523 46.9312 56.696 46.8288 56.6544 46.5408C56.6544 46.4768 56.5294 46.3936 56.4525 46.3776C56.2008 46.3298 55.9459 46.301 55.6899 46.2912C55.642 46.3002 55.5966 46.3195 55.5568 46.3477C55.517 46.3758 55.4837 46.4122 55.4592 46.4544C55.2766 46.7744 55.11 47.0944 54.9338 47.4144C54.7896 47.6704 54.6134 47.9136 54.4916 48.1792C54.2225 48.7253 53.9619 49.2768 53.7098 49.8336C53.3702 50.5792 53.0402 51.328 52.7101 52.0736C52.582 52.3616 52.4698 52.6528 52.3417 52.9408C52.1398 53.392 51.9187 53.8368 51.7297 54.2944C51.5407 54.752 51.4093 55.1872 51.2427 55.6384C51.0536 56.1856 50.855 56.7296 50.6916 57.2864C50.4667 57.9522 50.3005 58.6364 50.1949 59.3312C50.1501 59.7824 50.054 60.2272 49.9931 60.6784C49.9322 61.1296 50.0347 61.28 50.4609 61.2992C50.5215 61.2952 50.5786 61.269 50.6211 61.2256C50.8443 60.9534 50.9933 60.6282 51.0536 60.2816C51.0985 60.096 51.1081 59.8752 51.374 59.8048C51.4251 59.7909 51.4729 59.7671 51.5147 59.7347C51.5565 59.7023 51.5915 59.6619 51.6176 59.616C51.8675 59.12 52.0982 58.6144 52.3321 58.112C52.5457 57.664 52.7518 57.216 52.9504 56.768C52.9761 56.7104 52.9985 56.6496 53.0241 56.592C53.1683 56.2432 53.3125 55.8912 53.4599 55.5456C53.5656 55.2992 53.6778 55.0592 53.7803 54.8192C53.9373 54.4992 54.1007 54.1792 54.2609 53.8592C54.4211 53.5392 54.5525 53.2192 54.6967 52.8992C54.8408 52.5792 54.969 52.3232 55.0972 52.032C55.2253 51.7408 55.3375 51.44 55.4785 51.1584C55.6515 50.8128 55.8597 50.4832 56.036 50.1376C56.1834 49.8496 56.3115 49.5456 56.4493 49.248C56.6511 48.8096 56.9523 48.4128 57.0228 47.9168C57.0517 47.7152 57.0933 47.52 57.1286 47.3344C57.1123 47.2713 57.0919 47.2093 57.0677 47.1488Z" fill="white"/>
<path d="M26.1708 58.9888V59.0496C26.3118 59.0496 26.456 59.0496 26.597 59.0496C26.6283 59.0501 26.6595 59.0445 26.6886 59.033C26.7178 59.0214 26.7443 59.0042 26.7668 58.9824C26.7956 58.9376 26.7668 58.8576 26.7668 58.784L26.1708 58.9888Z" fill="white"/>
</g>
<defs>
<clipPath id="clip0">
<rect width="77.5385" height="64" fill="white"/>
</clipPath>
</defs>
</svg>
